<svg xmlns="http://www.w3.org/2000/svg" version="1.1" xmlns:xlink="http://www.w3.org/1999/xlink" xmlns:svgjs="http://svgjs.dev/svgjs" width="128" height="128" viewBox="0 0 128 128"><g transform="matrix(0.2968299711815562,0,0,0.2968299711815562,44.89101731808561,12.760752631578939)"><svg viewBox="0 0 35 95" data-background-color="#ffffff" preserveAspectRatio="xMidYMid meet" height="347" width="128" xmlns="http://www.w3.org/2000/svg" xmlns:xlink="http://www.w3.org/1999/xlink"><g id="tight-bounds" transform="matrix(1,0,0,1,0.10304874634786643,-0.24049999999999727)"><svg viewBox="0 0 34.793902507304274 95.481" height="95.481" width="34.793902507304274"><g><svg viewBox="0 0 34.793902507304274 95.481" height="95.481" width="34.793902507304274"><g><svg viewBox="0 0 34.793902507304274 95.481" height="95.481" width="34.793902507304274"><g id="textblocktransform"><svg viewBox="0 0 34.793902507304274 95.481" height="95.481" width="34.793902507304274" id="textblock"><g><svg viewBox="0 0 34.793902507304274 95.481" height="95.481" width="34.793902507304274"><g><svg viewBox="0 0 34.793902507304274 95.481" height="95.481" width="34.793902507304274"><g><svg version="1.0" xmlns="http://www.w3.org/2000/svg" xmlns:xlink="http://www.w3.org/1999/xlink" x="0" y="0" viewBox="0 0.278 36.440349832164586 99.99916053091444" enable-background="new 0 0 36.439 100.277" xml:space="preserve" width="34.793902507304274" height="95.481" class="icon-icon-0" data-fill-palette-color="accent" id="icon-0"><path d="M26.47 95.631c-0.021 2.55 2.024 4.625 4.568 4.646 2.548 0.021 4.624-2.021 4.645-4.567l0.757-90.403c0.037-4.47-2.869-4.971-4.903-4.987-2.042-0.017-5.817 5.713-6.673 11C24 16.602 18.891 43.844 26.988 49.207L26.47 95.631 26.47 95.631 26.47 95.631z" fill="#ffffff" data-fill-palette-color="accent"></path><path d="M4.888 95.452L5.506 37.22C2.192 37.193 0.562 33.246 0 30.39L2.006 0.278 4.72 24.584 7.263 0.32l2.711 24.308 3.124-24.259 2.131 24.303 3.12-24.259 1.497 30.143c-0.602 2.846-2.064 6.766-5.386 6.739l-0.353 58.233c-0.021 2.548-2.106 4.59-4.649 4.568C6.914 100.075 4.868 98 4.888 95.452L4.888 95.452 4.888 95.452z" fill="#ffffff" data-fill-palette-color="accent"></path></svg></g></svg></g></svg></g></svg></g></svg></g><g></g></svg></g><defs></defs></svg><rect width="34.793902507304274" height="95.481" fill="none" stroke="none" visibility="hidden"></rect></g></svg></g></svg>