<svg xmlns="http://www.w3.org/2000/svg" version="1.1" xmlns:xlink="http://www.w3.org/1999/xlink" xmlns:svgjs="http://svgjs.dev/svgjs" width="1000" height="351" viewBox="0 0 1000 351"><g transform="matrix(1,0,0,1,-0.6060606060606233,-0.43252051363560895)"><svg viewBox="0 0 396 139" data-background-color="#ffffff" preserveAspectRatio="xMidYMid meet" height="351" width="1000" xmlns="http://www.w3.org/2000/svg" xmlns:xlink="http://www.w3.org/1999/xlink"><g id="tight-bounds" transform="matrix(1,0,0,1,0.2400000000000091,0.17128305240839836)"><svg viewBox="0 0 395.52 138.65743389518317" height="138.65743389518317" width="395.52"><g><svg viewBox="0 0 395.52 138.65743389518317" height="138.65743389518317" width="395.52"><g transform="matrix(1,0,0,1,0,85.69585680758787)"><svg viewBox="0 0 395.52 52.96157708759531" height="52.96157708759531" width="395.52"><g id="textblocktransform"><svg viewBox="0 0 395.52 52.96157708759531" height="52.96157708759531" width="395.52" id="textblock"><g><svg viewBox="0 0 395.52 52.96157708759531" height="52.96157708759531" width="395.52"><g transform="matrix(1,0,0,1,0,0)"><svg width="395.52" viewBox="0.6 -35.75 268.83 36" height="52.96157708759531" data-palette-color="#121212"><path d="M24-20.1L17.8-35.25 21.1-35.25 26.1-22.65 31.15-35.25 34.5-35.25 28.3-20.1 35.1-4.05 47.95-35.5 51.75-35.5 36.7 0 33.6 0 26.15-17.55 18.65 0 15.6 0 0.6-35.5 4.35-35.5 17.25-4.05 24-20.1ZM60.25 0L56.75 0 56.75-35.5 60.25-35.5 60.25 0ZM94.35-35.5L94.35-32.4 81.7-32.4 81.7 0 78.2 0 78.2-32.4 65.55-32.4 65.55-35.5 94.35-35.5ZM124.19-35.5L127.64-35.5 127.64 0 124.19 0 124.19-16.6 103.14-16.6 103.14 0 99.64 0 99.64-35.5 103.14-35.5 103.14-19.7 124.19-19.7 124.19-35.5ZM140.04 0L136.54 0 136.54-35.5 159.84-35.5 159.84-32.4 140.04-32.4 140.04-19.35 156.74-19.35 156.74-16.45 140.04-16.45 140.04 0ZM179.59 0.25L179.59 0.25Q175.84 0.25 172.79-1.25 169.74-2.75 167.54-5.33 165.34-7.9 164.14-11.13 162.94-14.35 162.94-17.75L162.94-17.75Q162.94-21.3 164.19-24.53 165.44-27.75 167.71-30.28 169.99-32.8 173.04-34.27 176.09-35.75 179.64-35.75L179.64-35.75Q183.39-35.75 186.44-34.2 189.49-32.65 191.66-30.05 193.84-27.45 195.04-24.25 196.24-21.05 196.24-17.7L196.24-17.7Q196.24-14.15 194.99-10.93 193.74-7.7 191.49-5.18 189.24-2.65 186.19-1.2 183.14 0.25 179.59 0.25ZM166.44-17.75L166.44-17.75Q166.44-14.85 167.39-12.18 168.34-9.5 170.09-7.43 171.84-5.35 174.26-4.13 176.69-2.9 179.59-2.9L179.59-2.9Q182.64-2.9 185.06-4.17 187.49-5.45 189.21-7.58 190.94-9.7 191.84-12.35 192.74-15 192.74-17.75L192.74-17.75Q192.74-20.65 191.79-23.3 190.84-25.95 189.06-28.05 187.29-30.15 184.89-31.35 182.49-32.55 179.59-32.55L179.59-32.55Q176.59-32.55 174.16-31.3 171.74-30.05 170.01-27.93 168.29-25.8 167.36-23.15 166.44-20.5 166.44-17.75ZM217.14 0.25L217.14 0.25Q213.39 0.25 210.34-1.25 207.29-2.75 205.09-5.33 202.89-7.9 201.69-11.13 200.49-14.35 200.49-17.75L200.49-17.75Q200.49-21.3 201.74-24.53 202.99-27.75 205.26-30.28 207.54-32.8 210.59-34.27 213.64-35.75 217.19-35.75L217.19-35.75Q220.94-35.75 223.99-34.2 227.04-32.65 229.21-30.05 231.39-27.45 232.59-24.25 233.79-21.05 233.79-17.7L233.79-17.7Q233.79-14.15 232.54-10.93 231.29-7.7 229.04-5.18 226.79-2.65 223.74-1.2 220.69 0.25 217.14 0.25ZM203.99-17.75L203.99-17.75Q203.99-14.85 204.94-12.18 205.89-9.5 207.64-7.43 209.39-5.35 211.81-4.13 214.24-2.9 217.14-2.9L217.14-2.9Q220.19-2.9 222.61-4.17 225.04-5.45 226.76-7.58 228.49-9.7 229.39-12.35 230.29-15 230.29-17.75L230.29-17.75Q230.29-20.65 229.34-23.3 228.39-25.95 226.61-28.05 224.84-30.15 222.44-31.35 220.04-32.55 217.14-32.55L217.14-32.55Q214.14-32.55 211.71-31.3 209.29-30.05 207.56-27.93 205.84-25.8 204.91-23.15 203.99-20.5 203.99-17.75ZM252.43 0L240.38 0 240.38-35.5 252.43-35.5Q258.08-35.5 261.86-33.13 265.63-30.75 267.53-26.73 269.43-22.7 269.43-17.8L269.43-17.8Q269.43-12.4 267.36-8.4 265.28-4.4 261.46-2.2 257.63 0 252.43 0L252.43 0ZM265.93-17.8L265.93-17.8Q265.93-22.05 264.36-25.35 262.78-28.65 259.78-30.53 256.78-32.4 252.43-32.4L252.43-32.4 243.88-32.4 243.88-3.1 252.43-3.1Q256.83-3.1 259.83-5.05 262.83-7 264.38-10.33 265.93-13.65 265.93-17.8Z" opacity="1" transform="matrix(1,0,0,1,0,0)" fill="#121212" class="wordmark-text-0" data-fill-palette-color="primary" id="text-0"></path></svg></g></svg></g></svg></g></svg></g><g transform="matrix(1,0,0,1,176.42401372707826,0)"><svg viewBox="0 0 42.67197254584347 73.19289953505672" height="73.19289953505672" width="42.67197254584347"><g><svg version="1.0" xmlns="http://www.w3.org/2000/svg" xmlns:xlink="http://www.w3.org/1999/xlink" x="8" y="0" viewBox="0 0.278 36.440349832164586 99.99916053091444" enable-background="new 0 0 36.439 100.277" xml:space="preserve" width="26.671972545843467" height="73.19289953505672" class="icon-icon-0" data-fill-palette-color="accent" id="icon-0"><path d="M26.47 95.631c-0.021 2.55 2.024 4.625 4.568 4.646 2.548 0.021 4.624-2.021 4.645-4.567l0.757-90.403c0.037-4.47-2.869-4.971-4.903-4.987-2.042-0.017-5.817 5.713-6.673 11C24 16.602 18.891 43.844 26.988 49.207L26.47 95.631 26.47 95.631 26.47 95.631z" fill="#f05d23" data-fill-palette-color="accent"></path><path d="M4.888 95.452L5.506 37.22C2.192 37.193 0.562 33.246 0 30.39L2.006 0.278 4.72 24.584 7.263 0.32l2.711 24.308 3.124-24.259 2.131 24.303 3.12-24.259 1.497 30.143c-0.602 2.846-2.064 6.766-5.386 6.739l-0.353 58.233c-0.021 2.548-2.106 4.59-4.649 4.568C6.914 100.075 4.868 98 4.888 95.452L4.888 95.452 4.888 95.452z" fill="#f05d23" data-fill-palette-color="accent"></path></svg></g></svg></g><g><rect width="176.42401372707826" height="4.7761296781069" y="67.41676985694983" x="219.09598627292172" fill="#f05d23" data-fill-palette-color="accent"></rect><rect width="176.42401372707826" height="4.7761296781069" y="67.41676985694983" x="0" fill="#f05d23" data-fill-palette-color="accent"></rect><rect width="176.42401372707826" height="4.7761296781069" y="57.864510500736024" x="219.09598627292172" fill="#f05d23" data-fill-palette-color="accent"></rect><rect width="176.42401372707826" height="4.7761296781069" y="57.864510500736024" x="0" fill="#f05d23" data-fill-palette-color="accent"></rect></g></svg></g><defs></defs></svg><rect width="395.52" height="138.65743389518317" fill="none" stroke="none" visibility="hidden"></rect></g></svg></g></svg>